<svg xmlns="http://www.w3.org/2000/svg" viewBox="0 0 100 100"><defs><style>.cls-1{fill:#505d75;}.cls-2{fill:#eda200;}.cls-3,.cls-4{fill:#2d3142;}.cls-4,.cls-5,.cls-6,.cls-7{fill-rule:evenodd;}.cls-5{fill:#fff;}.cls-6{fill:#bfbfc0;}.cls-7{fill:#f7bf00;}</style></defs><title>Ресурс 3</title><g id="Слой_2" data-name="Слой 2"><g id="Layer_1" data-name="Layer 1"><circle class="cls-1" cx="50" cy="50" r="50"/><path class="cls-2" d="M72.64 22.65l-.97.97"/><path class="cls-3" d="M78.71 28.35h-.38l-.1-.1M24.73 65l26.56 35A50 50 0 0 0 100 50v-1.17c-.09-.1-23.62-21.22-23.78-21.34"/><path class="cls-4" d="M23.75 31.55h-.1c-.41 0-.87 0-.87-.59v-3.47a.59.59 0 0 1 .59-.59H75.6a.59.59 0 0 1 .59.59V31c0 .56-.46.59-.87.59H23.75z"/><path class="cls-5" d="M75.12 31.55V63.3a3.84 3.84 0 0 1-3.83 3.84H27.68a3.85 3.85 0 0 1-3.84-3.84V31.55z"/><path class="cls-6" d="M47.78 26.9v-3.21a1.7 1.7 0 0 1 3.41 0v3.21zM47.78 67.09v8.5a1.7 1.7 0 0 0 3.41 0v-8.5zM56.88 67.09l7.25 7.24a1.7 1.7 0 0 1-2.41 2.41l-9.65-9.65zM42.08 67.09l-7.24 7.24a1.7 1.7 0 0 0 2.4 2.41l9.65-9.65z"/><path class="cls-7" d="M53.31 48.1l10.6-10.6a1.7 1.7 0 0 1 2.41 2.41l-13 13-6.76-6.76-11.47 11.47a1.7 1.7 0 0 1-2.4-2.4l13.86-13.88z"/></g></g></svg>