<svg xmlns="http://www.w3.org/2000/svg" viewBox="0 0 100.55 100.55"><defs><style>.cls-1{fill:#fff;}</style></defs><title>Ресурс 3</title><g id="Слой_2" data-name="Слой 2"><path class="cls-1" d="M30.31 40.98l10.66-10.66-18.63-18.63L34.04.04H.03L0 34l11.63-11.7 18.68 18.68zm58.61 37.27L70.23 59.56 59.58 70.22l18.63 18.64-11.71 11.65h34.02l.03-33.97-11.63 11.71zm-18.7-37.28l18.64-18.63 11.65 11.7V.03L66.54 0l11.71 11.63-18.69 18.68 10.66 10.66zm-39.9 18.61L11.69 78.21.04 66.5v34.02l33.96.03-11.7-11.63 18.68-18.69-10.66-10.65z" id="Layer_1" data-name="Layer 1"/></g></svg>