<svg xmlns="http://www.w3.org/2000/svg" viewBox="0 0 100 100"><defs><style>.cls-1{fill:#505d75;}.cls-2{fill:#eda200;}.cls-3{fill:#2d3142;}.cls-4{fill:#fff;}.cls-5{fill:#e6e7e8;}.cls-6{fill:#acdae9;}.cls-7{fill:#89cee6;}.cls-8{fill:#f7bf00;}.cls-9{fill:#3eb0c0;}.cls-10{fill:#4388b7;}</style></defs><title>Ресурс 1</title><g id="Слой_2" data-name="Слой 2"><g id="Layer_1" data-name="Layer 1"><circle class="cls-1" cx="50" cy="50" r="50"/><path class="cls-2" d="M61.77 28.35H24a2 2 0 0 0-2 2v10M72.64 22.65l-.97.97"/><path class="cls-3" d="M22 58.7v11.15a2 2 0 0 0 .3 1.15 2 2 0 0 0 .48.49c.12.16 28.48 28.47 28.51 28.51A50 50 0 0 0 100 50v-1.17c-.09-.1-19.06-19.1-19.22-19.22a2 2 0 0 0-.43-.43 2 2 0 0 0-1.61-.82h-.38l-.1-.1"/><rect class="cls-4" x="21.96" y="28.35" width="58.75" height="43.5" rx="2" ry="2"/><path class="cls-5" d="M22 63.22v6.63a2 2 0 0 0 2 2h54.71a2 2 0 0 0 2-2v-6.63z"/><path class="cls-6" d="M23.97 30.41h54.65v30.92H23.97z"/><path class="cls-7" d="M51.3 30.41h27.33v30.92H51.3z"/><path class="cls-4" d="M39.71 80.1h24.03v1.54H39.71zM61.26 80.1H42.31l.84-8.25h17.27l.84 8.25z"/><path class="cls-6" d="M60.82 75.79H42.75l.4-3.94h17.27l.4 3.94z"/><path class="cls-8" d="M60.26 37.43H40.73a.75.75 0 0 1 0-1.5h19.53a.75.75 0 0 1 0 1.5z"/><path class="cls-9" d="M60.26 40.61H42.73a.75.75 0 0 1 0-1.5h17.53a.75.75 0 0 1 0 1.5z"/><path class="cls-10" d="M60.26 43.8H42.73a.75.75 0 0 1 0-1.5h17.53a.75.75 0 0 1 0 1.5z"/><path class="cls-8" d="M62.26 47H42.73a.75.75 0 0 1 0-1.5h19.53a.75.75 0 0 1 0 1.5z"/><path class="cls-9" d="M62.26 50.16H42.73a.75.75 0 0 1 0-1.5h19.53a.75.75 0 0 1 0 1.5z"/><path class="cls-10" d="M64.26 53.34H44.73a.75.75 0 0 1 0-1.5h19.53a.75.75 0 0 1 0 1.5zM57.26 56.52H44.73a.75.75 0 0 1 0-1.5h12.53a.75.75 0 0 1 0 1.5z"/></g></g></svg>