<svg xmlns="http://www.w3.org/2000/svg" viewBox="0 0 100 100"><defs><style>.cls-1{fill:#2d3142;}.cls-2{fill:#505d75;}.cls-3{fill:#f7bf00;}.cls-4{fill:#cd7529;}.cls-5{fill:#acdae9;}.cls-6{fill:#89cee6;}.cls-7{fill:#fff;}.cls-8{fill:#ccefff;}</style></defs><title>Ресурс 2</title><g id="Слой_2" data-name="Слой 2"><g id="Layer_1" data-name="Layer 1"><circle class="cls-1" cx="50" cy="50" r="50"/><path class="cls-2" d="M98.44 62.42L78.21 42h-15.3S46.57 25.63 46.43 25.52a2.27 2.27 0 0 0-1.92-.83c-1.72 0-2.71.65-3.63 2.41 0 0-1.08 1.51-1.08 5.52 0 3.44 1.82 5.7.35 7.2a9.06 9.06 0 0 1-3.29 1.54 3.25 3.25 0 0 0-1.23-.24h-11a3.26 3.26 0 0 0-2.11 5.75c.11.13.89.92 1 1a3.24 3.24 0 0 0-1 5.54c.11.13 1.93 1.95 2 2a3.22 3.22 0 0 0 .29 4.59c.11.13 1.92 1.93 2 2a3.22 3.22 0 0 0 .38 4.57c.11.13 32.45 32.46 32.53 32.53a50.06 50.06 0 0 0 38.72-36.68z"/><path class="cls-3" d="M59.29 42h18.92v25.32H59.29z"/><path class="cls-4" d="M59.29 54.66h18.92v12.66H59.29z"/><path class="cls-5" d="M54.32 43.73h4.96V65.6h-4.96z"/><path class="cls-6" d="M54.32 54.66h4.96V65.6h-4.96z"/><circle class="cls-7" cx="63.34" cy="62.43" r="1.34"/><path class="cls-5" d="M63.34 63.76a1.34 1.34 0 0 0 1.34-1.34H62a1.34 1.34 0 0 0 1.34 1.34z"/><circle class="cls-7" cx="67.2" cy="62.43" r="1.34"/><path class="cls-5" d="M67.2 63.76a1.34 1.34 0 0 0 1.34-1.34h-2.68a1.34 1.34 0 0 0 1.34 1.34z"/><path class="cls-7" d="M54.32 45.91h-3.11a14.11 14.11 0 0 0-1.55-5.61 17.84 17.84 0 0 1-2.41-7 27.88 27.88 0 0 1-.25-5.47c.1-2-.74-3.13-2.46-3.13s-2.71.65-3.63 2.41c0 0-1.08 1.51-1.08 5.52 0 3.44 1.82 5.7.35 7.2-1.31 1.33-6.59 2.38-6.59 2.38a4.49 4.49 0 0 0-4.49 4.49v15.93a4.49 4.49 0 0 0 4.49 4.49h13.15a4.48 4.48 0 0 0 4.45-4h3.14z"/><path class="cls-7" d="M35.62 41.11h-11a3.27 3.27 0 1 0 0 6.54h11a3.27 3.27 0 0 0 0-6.54zM39.41 47.65H24.59a3.27 3.27 0 1 0 0 6.54h14.82a3.27 3.27 0 0 0 0-6.54zM38.9 54.23h-12a3.27 3.27 0 0 0 0 6.54h12a3.27 3.27 0 0 0 0-6.54zM37.45 60.77h-8.2a3.27 3.27 0 0 0 0 6.54h8.2a3.27 3.27 0 0 0 0-6.54z"/><path class="cls-8" d="M29.25 60.77a3.27 3.27 0 1 1 0-6.54h-2.33a3.27 3.27 0 1 0 0 6.54zm-2.33-6.58a3.27 3.27 0 1 1 0-6.54 3.27 3.27 0 1 1 0-6.54h-2.33a3.27 3.27 0 1 0 0 6.54 3.27 3.27 0 1 0 0 6.54zm1.4 9.81a3.27 3.27 0 0 1 3.27-3.27h-2.34a3.27 3.27 0 0 0 0 6.54h2.33A3.27 3.27 0 0 1 28.32 64z"/></g></g></svg>