<svg xmlns="http://www.w3.org/2000/svg" viewBox="0 0 294.98 379.15"><defs><style>.cls-1{fill:#b3b3b3;}</style></defs><title>Ресурс 1</title><g id="Слой_2" data-name="Слой 2"><g id="Layer_1" data-name="Layer 1"><path class="cls-1" d="M147.49 379.15a11.81 11.81 0 0 1-4.83-1 438.47 438.47 0 0 1-69.94-40.95c-20.59-14.9-37.08-30.18-49-45.41C8 271.68 0 251.46 0 231.66V47.22a11.82 11.82 0 0 1 6.5-10.56C9.47 35.16 80 0 147.49 0s138 35.16 141 36.66A11.82 11.82 0 0 1 295 47.22v184.44c0 19.8-8 40-23.71 60.1-11.93 15.23-28.42 30.51-49 45.41a438.56 438.56 0 0 1-69.94 40.95 11.81 11.81 0 0 1-4.86 1.03zM23.64 54.71v176.95c0 33.71 34.23 65.57 62.95 86.36a426.27 426.27 0 0 0 60.9 36.24 427.2 427.2 0 0 0 61.21-36.46c28.58-20.73 62.64-52.51 62.64-86.14V54.72c-18.48-8.38-73.25-31.07-123.85-31.07S42.11 46.33 23.64 54.71z"/><path class="cls-1" d="M188.33 154v-21.78a40.83 40.83 0 1 0-81.67 0V154c-7 1.84-12 7.3-12 13.74v59.78c0 8 7.69 14.41 17.19 14.41h71.32c9.49 0 17.19-6.45 17.19-14.41V167.7c-.02-6.44-5.07-11.9-12.03-13.7zm-32.59 47.62v9.74c0 4.06-3.69 7.35-8.25 7.35s-8.25-3.29-8.25-7.35V201a13.87 13.87 0 1 1 16.5.58zM172 153.3h-49v-21.08a24.54 24.54 0 1 1 49.08 0z"/></g></g></svg>