<svg xmlns="http://www.w3.org/2000/svg" viewBox="0 0 131.16 133.32"><defs><style>.cls-1{fill:#fff;}</style></defs><title>Ресурс 1</title><g id="Слой_2" data-name="Слой 2"><g id="Layer_1" data-name="Layer 1"><path class="cls-1" d="M126.89 44.54a5.27 5.27 0 0 0-9.89 3.73 55 55 0 0 1-73.12 70A55.38 55.38 0 0 1 33 112.06a55 55 0 0 1 52.51-95.58l-3.74 6.31c-1 1.73-.24 2.89 1.75 2.57l17.74-2.86a3 3 0 0 0 2.39-4l-6-16.94c-.67-1.9-2.07-2-3.09-.3L90.95 7.3A65.54 65.54 0 0 0 4.72 92.07a65.12 65.12 0 0 0 22 28.5 66.1 66.1 0 0 0 13 7.42 65.55 65.55 0 0 0 87.14-83.44z"/><path class="cls-1" d="M63.27 25.65A4.27 4.27 0 0 0 59 29.91v42.53l38.89 20.1a4.27 4.27 0 1 0 3.92-7.54L67.53 67.24V29.91a4.27 4.27 0 0 0-4.26-4.26z"/></g></g></svg>