<svg xmlns="http://www.w3.org/2000/svg" viewBox="0 0 100 100"><defs><style>.cls-1{fill:#2d3142;}.cls-2{fill:#505d75;}.cls-3{fill:#f7bf00;}.cls-4{fill:#cd7529;}.cls-5{fill:#fff;}.cls-6{fill:#ccefff;}.cls-7{fill:#3eb0c0;}.cls-8{fill:#183143;}</style></defs><title>Ресурс 4</title><g id="Слой_2" data-name="Слой 2"><g id="Layer_1" data-name="Layer 1"><circle class="cls-1" cx="50" cy="50" r="50"/><path class="cls-2" d="M98.6 61.76l-29.4-29.4a26.09 26.09 0 0 0-41.87 30.6 25.85 25.85 0 0 0 4.3 5.56l30.1 30.1A50.06 50.06 0 0 0 98.6 61.76z"/><circle class="cls-3" cx="50" cy="50" r="26.11"/><path class="cls-4" d="M50 23.89v52.22a26.11 26.11 0 0 0 0-52.21z"/><circle class="cls-5" cx="50" cy="50" r="22.69"/><path class="cls-6" d="M50 27.31v45.38a22.69 22.69 0 1 0 0-45.39z"/><path class="cls-6" d="M50 68.35h-.48l-.05 2h1.08l-.06-2zM58.77 66l-.42.24 1 1.8.47-.26.46-.28-1.07-1.74zm6.41-6.41l-.25.42 1.74 1.07.28-.46.26-.47-1.8-1zm4.38-9.3l-2 .06v.96l2 .05v-.54s.01-.34.01-.52zm-4.15-7.8l1.8-1-.21-.43-.28-.46-1.74 1.07.25.41zm-6.23-6.59l1.07-1.74-.46-.28-.47-.26-1 1.8.42.24zM50 33.32h.48l.05-2h-1.05l.06 2zm-9.78.58l-.46.28 1.07 1.74.41-.25.42-.24-1-1.8zm-7.16 7.16l-.26.47 1.8 1 .24-.42.25-.42-1.74-1.09zm-2.6 9.24v1.08l2-.06v-.48-.48zm4.15 8.87l-1.8 1 .26.47.28.46 1.74-1.1-.25-.41zm6.23 6.59l-1.07 1.74.46.28.47.26 1-1.8-.44-.24z"/><path class="cls-7" d="M50 67.57h-.48l-.05 2h1.08l-.06-2zm8.76-2.35l-.42.24 1 1.8.46-.26.46-.28L59.19 65zm6.41-6.41l-.25.42 1.74 1.07.28-.46.26-.47-1.8-1zm4.38-9.3l-2 .06v.96l2 .05v-.54s.02-.34.02-.52zm-4.15-7.8l1.8-1-.2-.43-.28-.46-1.74 1.07.25.41zm-6.23-6.59l1.07-1.74-.46-.28-.47-.26-1 1.8.42.24zM50 32.54h.48l.05-2h-1.05l.06 2zm-9.78.58l-.46.28 1.07 1.74.41-.25.42-.24-1-1.8zm-7.16 7.16l-.26.47 1.8 1 .24-.42.25-.42-1.74-1.07zm-2.61 9.24v1.08l2-.06v-.48-.48zm4.15 8.87l-1.8 1 .26.47.28.46 1.74-1.07-.25-.41zM40.84 65l-1.07 1.74.46.28.47.26 1-1.8-.42-.24z"/><path class="cls-6" d="M51 47.44V34.69a1 1 0 0 0-2 0v12.75a3.72 3.72 0 0 0-1.9 1.27l-9.93-2.5a1.53 1.53 0 1 0-.75 3l9.92 2.49A3.74 3.74 0 1 0 51 47.44z"/><path class="cls-8" d="M50 51a1 1 0 0 1-1-1V33.67a1 1 0 0 1 2 0V50a1 1 0 0 1-1 1z"/><path class="cls-8" d="M50 51.53a1.53 1.53 0 0 1-.38 0L36.4 48.16a1.53 1.53 0 1 1 .75-3l13.22 3.33a1.53 1.53 0 0 1-.37 3z"/><circle class="cls-8" cx="50" cy="50" r="3.74"/><circle class="cls-6" cx="50" cy="50" r="1.97"/></g></g></svg>