<svg xmlns="http://www.w3.org/2000/svg" viewBox="0 0 269.35 89.53"><defs><style>.cls-1{fill:#fff;}.cls-2{fill:#cd7529;}</style></defs><title>Ресурс 1</title><g id="Слой_2" data-name="Слой 2"><g id="Layer_1" data-name="Layer 1"><path class="cls-1" d="M106.84 89.11V73.18h10.27v1.28h-8.76v5.75h8v1.29h-8v7.61zM130.38 73.18h1.51v9.49a6.58 6.58 0 0 0 1.11 4.28 4.42 4.42 0 0 0 3.56 1.31 6.11 6.11 0 0 0 2.18-.34 3.33 3.33 0 0 0 1.45-1 4.36 4.36 0 0 0 .8-1.74 10.89 10.89 0 0 0 .24-2.46v-9.54h1.5v9.94a6.74 6.74 0 0 1-1.54 4.77 6 6 0 0 1-4.64 1.65 6 6 0 0 1-4.65-1.68 6.79 6.79 0 0 1-1.53-4.74zM158.91 75.22v13.9h-1.5V73.18h1.7l9.21 13.92V73.18h1.51v15.93h-1.75zM184.45 89.11V73.18h6.74a9 9 0 0 1 1.26.16 6.31 6.31 0 0 1 1.21.36 5.69 5.69 0 0 1 1.14.64 4.84 4.84 0 0 1 1.3 1.4 8.09 8.09 0 0 1 .81 1.75 10.2 10.2 0 0 1 .42 1.86 13.64 13.64 0 0 1 .12 1.74 13.42 13.42 0 0 1-.1 1.62 10.64 10.64 0 0 1-.32 1.6 8.26 8.26 0 0 1-.59 1.51 5.76 5.76 0 0 1-.92 1.32 4.89 4.89 0 0 1-1.2 1 6.23 6.23 0 0 1-1.37.59 8.2 8.2 0 0 1-1.49.29 15.69 15.69 0 0 1-1.57.08zm1.5-1.28h3.61a14.15 14.15 0 0 0 1.91-.12 5.55 5.55 0 0 0 1.83-.61 3.6 3.6 0 0 0 1.3-1.08 5.94 5.94 0 0 0 .81-1.49 8 8 0 0 0 .42-1.69 12.54 12.54 0 0 0 .12-1.7 14.52 14.52 0 0 0-.11-1.76 7.29 7.29 0 0 0-.42-1.7 5.71 5.71 0 0 0-.84-1.48 4.22 4.22 0 0 0-1.37-1.12 4.71 4.71 0 0 0-1.68-.49 17.48 17.48 0 0 0-2-.11H186zM212 89.11V73.18h1.5v15.93zM230.22 75.22v13.9h-1.5V73.18h1.7l9.21 13.92V73.18h1.51v15.93h-1.75zM262.53 82.16v-1.28h6.82v8.23h-1.28v-2.72a7.71 7.71 0 0 1-1 1.29 5.29 5.29 0 0 1-1.25 1 6 6 0 0 1-1.64.63 9.13 9.13 0 0 1-2.1.22 7.22 7.22 0 0 1-2.79-.53 5.94 5.94 0 0 1-2.21-1.58 7.4 7.4 0 0 1-1.45-2.64 12 12 0 0 1-.52-3.72 11.58 11.58 0 0 1 .44-3.26 7.3 7.3 0 0 1 1.36-2.63 6.44 6.44 0 0 1 2.3-1.76 7.68 7.68 0 0 1 3.26-.64 8.65 8.65 0 0 1 2.36.31 6.22 6.22 0 0 1 2 .94 5.64 5.64 0 0 1 1.47 1.57 6.61 6.61 0 0 1 .86 2.22h-1.55a4.66 4.66 0 0 0-.68-1.59 4.59 4.59 0 0 0-1.12-1.22 5.14 5.14 0 0 0-1.48-.73 5.72 5.72 0 0 0-1.7-.25 6.08 6.08 0 0 0-2.7.55 5 5 0 0 0-1.86 1.56 6.85 6.85 0 0 0-1.07 2.44 13 13 0 0 0-.34 3.09 8.14 8.14 0 0 0 .39 2.52 6.41 6.41 0 0 0 1.13 2.1 5.32 5.32 0 0 0 4.26 2 6.48 6.48 0 0 0 1.33-.14 5.24 5.24 0 0 0 1.33-.48 5.18 5.18 0 0 0 1.2-.86 4.94 4.94 0 0 0 1-1.31 5.68 5.68 0 0 0 .52-1.57 11.62 11.62 0 0 0 .17-1.73z"/><path class="cls-2" d="M11.45 78.05v-.06h27.51v-8.65H0v8.71h11.45z"/><path class="cls-1" d="M32.89 62V37.31c0-11.4-5.51-16.6-13.49-16.6-7.58 0-13.33 4.86-13.33 16.1V62H.16V0h5.9v22C9 17.52 14 15 20 15c11.3 0 18.8 7 18.8 22.31V62zM56.45 78h-6.31l7.11-17.6-16.93-44.3h6.47L60.6 52.65 75.37 16.1h6.31zM107.31 63c-7.27 0-13.17-3.1-17-9v24h-5.92V16h5.91v8c3.67-5.78 9.74-9 17.17-9 13 0 23 10.48 23 24.14C130.46 52.56 120.32 63 107.31 63zm-.08-42.34c-9.66 0-17.33 8-17.33 18.11 0 10.56 7.43 18.53 17.41 18.53 9.74 0 17.17-7.88 17.17-18.19 0-10.52-7.43-18.4-17.25-18.4zM168.55 62V37.31c0-11.4-5.51-16.6-13.49-16.6-7.59 0-13.33 4.86-13.33 16.1V62h-5.91V0h5.91v22c3-4.53 7.9-7 13.89-7 11.34 0 18.84 7 18.84 22.3V62zM185.72 41.08a17.22 17.22 0 0 0 17 16.26A16.56 16.56 0 0 0 218 46.86h6.15C221.33 55.58 212.79 63 202.89 63c-12.89 0-23.08-10.6-23.08-24.19 0-13.33 10-23.81 22.68-23.81 12.94 0 22.76 9.81 22.76 26.07zm16.69-20.37c-8.3 0-14.93 6-16.53 14.75h33.45c-1.99-9.14-8.46-14.75-16.92-14.75zM263.09 62V37.89c0-12.49-5.43-17.19-13.49-17.19-7.9 0-13.33 4.78-13.33 16V62h-5.91V16.1h5.91v6a17 17 0 0 1 14.05-7C261.25 15 269 21.8 269 37.89V62z"/></g></g></svg>